<svg version="1.1" viewBox="0.0 0.0 100.0 100.0" fill="none" stroke="none" stroke-linecap="square" stroke-miterlimit="10" xmlns:xlink="http://www.w3.org/1999/xlink" xmlns="http://www.w3.org/2000/svg"><clipPath id="p.0"><path d="m0 0l100.0 0l0 100.0l-100.0 0l0 -100.0z" clip-rule="nonzero"/></clipPath><g clip-path="url(#p.0)"><path fill="#000000" fill-opacity="0.0" d="m0 0l100.0 0l0 100.0l-100.0 0z" fill-rule="evenodd"/><path fill="#181818" d="m0 0l100.0 0l0 100.0l-100.0 0z" fill-rule="evenodd"/><path fill="#3092df" d="m14.3125 36.612495l0 -8.078125l7.03125 0l0 8.078125l-7.03125 0zm0 49.1875l0 -41.484375l7.03125 0l0 41.484375l-7.03125 0zm17.742188 0l0 -41.484375l6.328125 0l0 5.890625q4.5625 -6.828125 13.203125 -6.828125q3.75 0 6.890625 1.34375q3.140625 1.34375 4.703125 3.53125q1.5625 2.1875 2.1875 5.203125q0.390625 1.953125 0.390625 6.828125l0 25.515625l-7.03125 0l0 -25.234375q0 -4.296875 -0.828125 -6.421875q-0.8125 -2.140625 -2.90625 -3.40625q-2.078125 -1.265625 -4.890625 -1.265625q-4.5 0 -7.765625 2.859375q-3.25 2.84375 -3.25 10.8125l0 22.65625l-7.03125 0z" fill-rule="nonzero"/><path fill="#000000" fill-opacity="0.0" d="m6.406824 33.735134l0 0c0 -6.1926727 5.020152 -11.212824 11.212822 -11.212824l44.849945 0l0 0c2.9738274 0 5.8258476 1.1813469 7.9286613 3.2841587c2.1028137 2.1028118 3.2841568 4.954838 3.2841568 7.928665l0 45.54286c0 6.1926727 -5.020149 11.212822 -11.212818 11.212822l-44.849945 0l0 0c-6.19267 0 -11.212822 -5.020149 -11.212822 -11.212822z" fill-rule="evenodd"/><path stroke="#2674b1" stroke-width="4.0" stroke-linejoin="round" stroke-linecap="butt" d="m6.406824 33.735134l0 0c0 -6.1926727 5.020152 -11.212824 11.212822 -11.212824l44.849945 0l0 0c2.9738274 0 5.8258476 1.1813469 7.9286613 3.2841587c2.1028137 2.1028118 3.2841568 4.954838 3.2841568 7.928665l0 45.54286c0 6.1926727 -5.020149 11.212822 -11.212818 11.212822l-44.849945 0l0 0c-6.19267 0 -11.212822 -5.020149 -11.212822 -11.212822z" fill-rule="evenodd"/></g></svg>